<?xml version="1.0" encoding="UTF-8" standalone="no"?>
<!DOCTYPE svg PUBLIC "-//W3C//DTD SVG 1.1//EN"
 "http://www.w3.org/Graphics/SVG/1.1/DTD/svg11.dtd">
<!-- Generated by graphviz version 12.1.2 (20240928.0832)
 -->
<!-- Title: Database Structure Pages: 1 -->
<svg width="845pt" height="594pt"
 viewBox="0.00 0.00 845.14 594.00" xmlns="http://www.w3.org/2000/svg" xmlns:xlink="http://www.w3.org/1999/xlink">
<g id="graph0" class="graph" transform="scale(1 1) rotate(0) translate(4 590)">
<title>Database Structure</title>
<polygon fill="white" stroke="none" points="-4,4 -4,-590 841.14,-590 841.14,4 -4,4"/>
<!-- albums -->
<g id="node1" class="node">
<title>albums</title>
<polygon fill="#dddddd" stroke="none" points="115.14,-180 115.14,-202 249.14,-202 249.14,-180 115.14,-180"/>
<polygon fill="none" stroke="black" points="115.14,-180 115.14,-202 249.14,-202 249.14,-180 115.14,-180"/>
<text text-anchor="start" x="162.27" y="-185.7" font-family="Times,serif" font-size="14.00">albums</text>
<polygon fill="none" stroke="black" points="115.14,-158 115.14,-180 249.14,-180 249.14,-158 115.14,-158"/>
<text text-anchor="start" x="158.14" y="-164.7" font-family="Times,serif" font-size="14.00">id:</text>
<text text-anchor="start" x="172.39" y="-164.7" font-family="Helvetica,sans-Serif" font-style="oblique" font-size="10.00">BIGINT</text>
<polygon fill="none" stroke="black" points="115.14,-136 115.14,-158 249.14,-158 249.14,-136 115.14,-136"/>
<text text-anchor="start" x="140.89" y="-142.7" font-family="Times,serif" font-size="14.00">name:</text>
<text text-anchor="start" x="174.64" y="-142.7" font-family="Helvetica,sans-Serif" font-style="oblique" font-size="10.00">VARCHAR</text>
<polygon fill="none" stroke="black" points="115.14,-114 115.14,-136 249.14,-136 249.14,-114 115.14,-114"/>
<text text-anchor="start" x="137.52" y="-120.7" font-family="Times,serif" font-size="14.00">description:</text>
<text text-anchor="start" x="201.27" y="-120.7" font-family="Helvetica,sans-Serif" font-style="oblique" font-size="10.00">TEXT</text>
<polygon fill="none" stroke="black" points="115.14,-92 115.14,-114 249.14,-114 249.14,-92 115.14,-92"/>
<text text-anchor="start" x="123.27" y="-98.7" font-family="Times,serif" font-size="14.00">spotify_link:</text>
<text text-anchor="start" x="192.27" y="-98.7" font-family="Helvetica,sans-Serif" font-style="oblique" font-size="10.00">VARCHAR</text>
<polygon fill="none" stroke="black" points="115.14,-70 115.14,-92 249.14,-92 249.14,-70 115.14,-70"/>
<text text-anchor="start" x="141.27" y="-76.7" font-family="Times,serif" font-size="14.00">artist_id:</text>
<text text-anchor="start" x="189.27" y="-76.7" font-family="Helvetica,sans-Serif" font-style="oblique" font-size="10.00">BIGINT</text>
<polygon fill="none" stroke="black" points="115.14,-48 115.14,-70 249.14,-70 249.14,-48 115.14,-48"/>
<text text-anchor="start" x="118.02" y="-54.7" font-family="Times,serif" font-size="14.00">base64image:</text>
<text text-anchor="start" x="193.02" y="-54.7" font-family="Helvetica,sans-Serif" font-style="oblique" font-size="10.00">LONGTEXT</text>
</g>
<!-- artists -->
<g id="node3" class="node">
<title>artists</title>
<polygon fill="#dddddd" stroke="none" points="622.14,-92 622.14,-114 756.14,-114 756.14,-92 622.14,-92"/>
<polygon fill="none" stroke="black" points="622.14,-92 622.14,-114 756.14,-114 756.14,-92 622.14,-92"/>
<text text-anchor="start" x="673.02" y="-97.7" font-family="Times,serif" font-size="14.00">artists</text>
<polygon fill="none" stroke="black" points="622.14,-70 622.14,-92 756.14,-92 756.14,-70 622.14,-70"/>
<text text-anchor="start" x="665.14" y="-76.7" font-family="Times,serif" font-size="14.00">id:</text>
<text text-anchor="start" x="679.39" y="-76.7" font-family="Helvetica,sans-Serif" font-style="oblique" font-size="10.00">BIGINT</text>
<polygon fill="none" stroke="black" points="622.14,-48 622.14,-70 756.14,-70 756.14,-48 622.14,-48"/>
<text text-anchor="start" x="647.89" y="-54.7" font-family="Times,serif" font-size="14.00">name:</text>
<text text-anchor="start" x="681.64" y="-54.7" font-family="Helvetica,sans-Serif" font-style="oblique" font-size="10.00">VARCHAR</text>
<polygon fill="none" stroke="black" points="622.14,-26 622.14,-48 756.14,-48 756.14,-26 622.14,-26"/>
<text text-anchor="start" x="644.52" y="-32.7" font-family="Times,serif" font-size="14.00">description:</text>
<text text-anchor="start" x="708.27" y="-32.7" font-family="Helvetica,sans-Serif" font-style="oblique" font-size="10.00">TEXT</text>
<polygon fill="none" stroke="black" points="622.14,-4 622.14,-26 756.14,-26 756.14,-4 622.14,-4"/>
<text text-anchor="start" x="625.02" y="-10.7" font-family="Times,serif" font-size="14.00">base64image:</text>
<text text-anchor="start" x="700.02" y="-10.7" font-family="Helvetica,sans-Serif" font-style="oblique" font-size="10.00">LONGTEXT</text>
</g>
<!-- albums&#45;&gt;artists -->
<g id="edge1" class="edge">
<title>albums:artist_id&#45;&gt;artists:id</title>
<path fill="none" stroke="#444444" stroke-dasharray="5,2" d="M250.14,-81C411.49,-81 454.43,-81 610.68,-81"/>
<polygon fill="#444444" stroke="#444444" points="620.64,-84.5 610.64,-81 620.64,-77.5 620.64,-84.5"/>
</g>
<!-- albums_without_images -->
<g id="node2" class="node">
<title>albums_without_images</title>
<polygon fill="#ddddff" stroke="none" points="111.39,-230.75 111.39,-253.25 252.89,-253.25 252.89,-230.75 111.39,-230.75"/>
<polygon fill="none" stroke="black" points="111.39,-230.75 111.39,-253.25 252.89,-253.25 252.89,-230.75 111.39,-230.75"/>
<text text-anchor="start" x="115.39" y="-236.95" font-family="Times,serif" font-size="14.00">albums_without_images</text>
</g>
<!-- artists_without_images -->
<g id="node4" class="node">
<title>artists_without_images</title>
<polygon fill="#ddddff" stroke="none" points="115.14,-284.75 115.14,-307.25 249.14,-307.25 249.14,-284.75 115.14,-284.75"/>
<polygon fill="none" stroke="black" points="115.14,-284.75 115.14,-307.25 249.14,-307.25 249.14,-284.75 115.14,-284.75"/>
<text text-anchor="start" x="119.14" y="-290.95" font-family="Times,serif" font-size="14.00">artists_without_images</text>
</g>
<!-- sessions -->
<g id="node5" class="node">
<title>sessions</title>
<polygon fill="#dddddd" stroke="none" points="124.64,-380 124.64,-402 239.64,-402 239.64,-380 124.64,-380"/>
<polygon fill="none" stroke="black" points="124.64,-380 124.64,-402 239.64,-402 239.64,-380 124.64,-380"/>
<text text-anchor="start" x="160.02" y="-385.7" font-family="Times,serif" font-size="14.00">sessions</text>
<polygon fill="none" stroke="black" points="124.64,-358 124.64,-380 239.64,-380 239.64,-358 124.64,-358"/>
<text text-anchor="start" x="127.39" y="-364.7" font-family="Times,serif" font-size="14.00">session_Id:</text>
<text text-anchor="start" x="188.14" y="-364.7" font-family="Helvetica,sans-Serif" font-style="oblique" font-size="10.00">VARCHAR</text>
<polygon fill="none" stroke="black" points="124.64,-336 124.64,-358 239.64,-358 239.64,-336 124.64,-336"/>
<text text-anchor="start" x="152.14" y="-342.7" font-family="Times,serif" font-size="14.00">value:</text>
<text text-anchor="start" x="185.14" y="-342.7" font-family="Helvetica,sans-Serif" font-style="oblique" font-size="10.00">JSON</text>
</g>
<!-- users -->
<g id="node6" class="node">
<title>users</title>
<polygon fill="#dddddd" stroke="none" points="97.64,-560 97.64,-582 266.64,-582 266.64,-560 97.64,-560"/>
<polygon fill="none" stroke="black" points="97.64,-560 97.64,-582 266.64,-582 266.64,-560 97.64,-560"/>
<text text-anchor="start" x="168.27" y="-565.7" font-family="Times,serif" font-size="14.00">users</text>
<polygon fill="none" stroke="black" points="97.64,-538 97.64,-560 266.64,-560 266.64,-538 97.64,-538"/>
<text text-anchor="start" x="158.14" y="-544.7" font-family="Times,serif" font-size="14.00">id:</text>
<text text-anchor="start" x="172.39" y="-544.7" font-family="Helvetica,sans-Serif" font-style="oblique" font-size="10.00">BIGINT</text>
<polygon fill="none" stroke="black" points="97.64,-516 97.64,-538 266.64,-538 266.64,-516 97.64,-516"/>
<text text-anchor="start" x="140.52" y="-522.7" font-family="Times,serif" font-size="14.00">email:</text>
<text text-anchor="start" x="175.02" y="-522.7" font-family="Helvetica,sans-Serif" font-style="oblique" font-size="10.00">VARCHAR</text>
<polygon fill="none" stroke="black" points="97.64,-494 97.64,-516 266.64,-516 266.64,-494 97.64,-494"/>
<text text-anchor="start" x="126.64" y="-500.7" font-family="Times,serif" font-size="14.00">first_name:</text>
<text text-anchor="start" x="188.89" y="-500.7" font-family="Helvetica,sans-Serif" font-style="oblique" font-size="10.00">VARCHAR</text>
<polygon fill="none" stroke="black" points="97.64,-472 97.64,-494 266.64,-494 266.64,-472 97.64,-472"/>
<text text-anchor="start" x="128.14" y="-478.7" font-family="Times,serif" font-size="14.00">last_name:</text>
<text text-anchor="start" x="187.39" y="-478.7" font-family="Helvetica,sans-Serif" font-style="oblique" font-size="10.00">VARCHAR</text>
<polygon fill="none" stroke="black" points="97.64,-450 97.64,-472 266.64,-472 266.64,-450 97.64,-450"/>
<text text-anchor="start" x="145.39" y="-456.7" font-family="Times,serif" font-size="14.00">role:</text>
<text text-anchor="start" x="170.14" y="-456.7" font-family="Helvetica,sans-Serif" font-style="oblique" font-size="10.00">VARCHAR</text>
<polygon fill="none" stroke="black" points="97.64,-428 97.64,-450 266.64,-450 266.64,-428 97.64,-428"/>
<text text-anchor="start" x="100.39" y="-434.7" font-family="Times,serif" font-size="14.00">encrypted_password:</text>
<text text-anchor="start" x="215.14" y="-434.7" font-family="Helvetica,sans-Serif" font-style="oblique" font-size="10.00">VARCHAR</text>
</g>
</g>
</svg>
